<?xml version="1.0" standalone="no"?>
<!DOCTYPE svg PUBLIC "-//W3C//DTD SVG 20010904//EN"
 "http://www.w3.org/TR/2001/REC-SVG-20010904/DTD/svg10.dtd">
<svg version="1.0" xmlns="http://www.w3.org/2000/svg"
 width="137.000000pt" height="129.000000pt" viewBox="0 0 137.000000 129.000000"
 preserveAspectRatio="xMidYMid meet">

<g transform="translate(0.000000,129.000000) scale(0.100000,-0.100000)"
fill="#000000" stroke="none">
<path d="M490 1257 c-83 -25 -219 -93 -227 -114 -3 -7 -11 -13 -18 -13 -12 0
-45 -31 -45 -43 0 -15 22 -6 48 19 119 112 356 175 542 144 41 -7 85 -13 97
-14 11 -1 20 -4 18 -7 -2 -3 13 -11 33 -18 53 -18 163 -84 191 -115 13 -14 29
-23 35 -19 6 3 8 3 4 -2 -4 -4 10 -27 31 -50 38 -42 123 -200 128 -240 23
-181 12 -267 -48 -392 -21 -45 -39 -87 -39 -93 0 -6 -4 -8 -10 -5 -5 3 -10 2
-10 -3 0 -14 -98 -109 -148 -144 -196 -136 -474 -156 -692 -50 -71 35 -114 65
-148 104 -9 9 -20 14 -25 11 -6 -3 -7 -2 -4 4 4 6 -5 21 -20 34 -36 33 -89
117 -114 181 -41 105 -51 236 -25 348 8 35 12 68 9 73 -3 6 -1 7 5 3 7 -4 12
-2 12 5 0 20 75 140 109 176 20 20 27 34 20 39 -6 3 -21 -4 -33 -16 -11 -13
-14 -19 -6 -14 8 4 -2 -9 -23 -30 -23 -22 -36 -44 -33 -53 3 -8 2 -11 -4 -8
-10 6 -42 -53 -65 -120 -37 -106 -36 -265 1 -377 22 -68 90 -184 104 -180 7 2
10 -3 7 -11 -5 -12 53 -74 119 -125 42 -33 192 -104 204 -97 6 3 10 2 10 -3 0
-5 23 -14 51 -20 63 -15 273 -16 264 -2 -3 6 1 7 10 4 36 -14 263 75 249 97
-4 8 -3 9 5 5 15 -10 113 62 104 76 -3 6 -2 8 4 5 20 -13 151 172 137 194 -4
7 -3 9 3 6 6 -4 20 25 33 70 30 102 30 239 0 336 -25 80 -75 173 -90 169 -6
-1 -9 2 -5 8 10 17 -80 116 -147 162 -136 92 -246 125 -415 127 -96 0 -132 -4
-193 -22z m818 -382 c-3 -3 -9 2 -12 12 -6 14 -5 15 5 6 7 -7 10 -15 7 -18z"/>
<path d="M570 1224 c-70 -14 -214 -72 -252 -103 -99 -79 -185 -181 -172 -203
4 -6 3 -8 -3 -5 -12 8 -46 -61 -37 -75 4 -6 2 -8 -3 -5 -12 8 -28 -49 -38
-134 -8 -61 10 -202 25 -207 6 -2 8 -8 5 -12 -8 -13 26 -91 36 -84 5 3 6 -1 4
-8 -7 -18 68 -124 84 -120 7 1 10 -2 7 -7 -7 -10 18 -33 27 -26 4 3 5 2 2 -2
-6 -8 14 -33 27 -33 5 0 6 5 2 12 -4 7 -3 8 5 4 6 -4 9 -11 6 -16 -8 -13 73
-62 87 -54 6 4 8 3 5 -3 -9 -14 48 -37 64 -27 7 4 10 3 6 -3 -4 -6 11 -15 32
-22 58 -17 128 -24 134 -14 3 5 9 111 12 234 l6 225 -23 -1 c-13 -1 -40 -9
-60 -18 -40 -18 -104 -22 -127 -8 -23 14 -2 31 32 26 28 -5 26 -3 -10 11 -25
9 -43 22 -43 31 0 13 10 14 58 10 31 -3 47 -3 34 0 -13 2 -21 10 -19 16 4 14
62 21 85 11 10 -4 20 -7 24 -6 4 1 5 -4 2 -12 -7 -17 19 -27 37 -14 11 7 11
11 2 15 -7 2 -13 9 -13 14 0 6 5 7 10 4 6 -3 10 -1 10 4 0 7 -23 11 -55 11
-29 0 -77 5 -104 11 -47 10 -52 9 -77 -14 -31 -29 -84 -43 -95 -25 -4 7 0 17
9 24 14 11 10 11 -23 4 -58 -14 -65 -12 -65 13 0 18 6 23 32 25 49 4 47 12 -3
12 -61 0 -94 19 -94 53 -1 16 3 31 7 33 5 3 6 10 2 15 -3 5 0 17 7 25 10 12
14 12 26 -6 21 -30 33 -24 20 9 -6 17 -14 28 -19 25 -4 -3 -2 9 3 26 14 38 25
31 54 -34 l23 -51 -2 40 c-1 48 27 59 32 13 2 -16 8 -28 13 -28 6 0 7 -5 4
-11 -8 -12 13 -69 26 -69 4 0 7 12 6 26 -3 40 20 40 33 0 6 -20 16 -36 22 -36
6 0 8 3 5 7 -8 7 11 33 23 33 5 0 18 -17 30 -37 15 -24 25 -33 28 -24 2 7 0
16 -5 20 -16 10 -21 35 -11 54 12 23 25 14 42 -28 8 -18 24 -38 35 -45 20 -10
21 -9 15 16 -4 17 -2 29 7 36 10 6 5 8 -16 6 -21 -2 -31 2 -33 14 -2 9 5 18
15 21 10 3 -28 4 -85 3 -81 -1 -105 2 -112 14 -7 10 -5 18 5 26 13 10 9 14
-24 27 -22 9 -42 21 -46 27 -3 5 -16 15 -27 21 -18 10 -20 9 -15 -5 4 -10 3
-15 -2 -12 -13 8 -11 66 2 66 7 0 22 -7 34 -15 20 -14 21 -13 19 15 0 16 2 28
5 27 4 -1 16 6 27 16 13 12 22 15 27 8 3 -6 -1 -11 -9 -11 -12 0 -14 -7 -9
-32 3 -18 11 -39 19 -47 10 -11 12 -7 7 28 -5 33 -3 41 10 41 11 0 21 -16 30
-47 15 -50 41 -74 35 -32 -2 18 2 24 17 24 14 0 21 -8 23 -27 2 -14 10 -32 18
-38 12 -11 13 -8 8 18 -3 16 -1 32 4 36 14 8 43 -4 36 -15 -9 -15 6 -49 22
-49 8 0 14 9 14 20 0 27 24 25 43 -2 l16 -23 0 30 c1 23 -4 31 -18 32 -122 9
-291 98 -291 152 0 21 38 11 54 -14 9 -14 22 -25 28 -25 9 0 9 3 0 12 -17 17
-15 75 3 81 10 5 19 -9 32 -51 l18 -57 5 45 c3 25 1 48 -5 52 -6 4 -2 8 8 8 9
0 17 -4 17 -10 0 -5 6 -10 13 -10 9 0 12 -11 9 -34 -2 -20 3 -45 13 -62 l16
-29 -5 26 c-4 17 0 31 8 38 16 13 20 9 31 -34 l8 -30 7 30 c5 25 2 32 -17 43
-24 13 -53 61 -53 87 0 26 37 18 44 -10 4 -14 11 -25 16 -25 13 0 13 16 0 41
-7 13 -7 19 0 19 5 0 10 8 10 17 0 27 28 -15 36 -54 9 -49 24 -40 24 16 0 76
49 78 51 1 l1 -35 12 35 c7 19 21 37 31 39 16 3 17 -2 12 -43 -7 -50 3 -60 21
-21 13 28 30 33 38 11 3 -8 18 -19 34 -26 26 -11 27 -14 19 -43 -14 -50 -10
-55 12 -14 11 21 21 50 22 66 2 27 3 27 24 13 18 -11 21 -20 17 -41 -4 -14
-11 -32 -17 -38 -6 -9 -6 -13 1 -13 6 0 14 5 17 10 9 14 46 12 43 -2 -2 -7 2
-14 7 -15 6 -2 10 1 10 6 0 5 3 12 7 16 9 9 5 -16 -5 -32 -4 -7 -14 -10 -22
-6 -18 6 -47 -15 -39 -28 3 -5 -3 -6 -12 -2 -13 5 -15 3 -9 -7 5 -9 4 -11 -3
-6 -7 4 -18 4 -24 -1 -7 -4 -17 -8 -23 -10 -5 -1 -28 -7 -50 -12 -22 -6 -57
-13 -77 -16 -34 -5 -38 -9 -37 -33 1 -17 3 -20 6 -9 2 9 13 17 24 17 11 0 19
-7 19 -17 1 -17 1 -17 11 0 14 23 25 22 32 -5 7 -26 19 -18 23 15 1 12 3 25 3
28 1 4 11 9 24 11 21 4 22 1 19 -31 -5 -40 5 -40 11 0 3 16 11 25 27 27 19 3
22 0 17 -17 -3 -12 -1 -21 3 -21 11 0 30 56 30 87 0 18 5 24 18 21 13 -3 17
-13 16 -41 -1 -20 0 -37 2 -37 2 0 15 23 29 50 38 75 72 64 40 -14 -7 -16 -6
-17 13 -7 15 8 23 8 28 0 8 -13 -52 -68 -73 -69 -7 0 -13 -4 -13 -8 0 -5 -19
-15 -42 -22 -24 -7 -38 -15 -31 -17 7 -2 21 1 33 7 21 11 29 3 27 -30 -1 -18
-98 -26 -138 -12 -13 4 -39 6 -58 3 -31 -6 -33 -9 -36 -50 l-4 -43 23 21 c25
23 36 19 36 -13 1 -21 1 -21 15 -2 8 11 15 30 15 43 0 18 6 23 24 23 33 0 40
-14 21 -44 -9 -13 -12 -27 -8 -29 13 -8 37 9 29 21 -3 6 -1 14 5 18 8 5 9 3 4
-6 -5 -9 -4 -11 3 -6 7 4 12 13 12 20 0 23 22 36 42 25 16 -8 17 -13 7 -25 -6
-8 -9 -17 -6 -20 9 -10 37 53 37 84 0 17 9 37 22 48 12 10 18 14 15 7 -4 -6
-2 -15 4 -18 6 -4 8 -18 4 -34 -8 -31 -3 -27 20 18 13 26 14 33 3 29 -9 -4
-14 1 -14 13 0 10 6 21 13 23 7 3 10 -1 7 -9 -4 -10 0 -12 16 -8 35 9 40 -15
12 -66 l-25 -46 26 24 c15 14 30 21 34 18 3 -4 13 -1 22 6 14 10 14 10 3 -5
-8 -9 -11 -22 -7 -28 3 -5 1 -10 -5 -10 -6 0 -8 -4 -5 -10 3 -5 0 -8 -7 -5 -7
2 -26 -7 -43 -20 -25 -21 -26 -23 -7 -18 12 3 22 8 22 12 0 3 14 7 30 8 23 2
30 -2 30 -16 0 -20 -54 -40 -111 -42 l-34 -1 40 -12 c23 -7 40 -18 40 -26 0
-20 -80 -17 -104 3 -33 29 -44 31 -31 8 6 -12 15 -19 19 -16 5 2 8 -3 7 -13
-1 -12 6 -17 22 -16 31 1 14 -14 -24 -22 -27 -5 -33 -1 -56 34 l-26 39 -64
-13 c-34 -8 -75 -14 -90 -14 -15 0 -30 -5 -33 -10 -3 -5 -12 -10 -18 -10 -7 0
-6 4 3 10 13 8 12 10 -2 10 -13 0 -18 -8 -18 -25 0 -17 5 -25 18 -25 23 1 54
25 44 35 -4 5 -2 5 4 2 6 -4 25 -2 42 2 45 13 53 -15 9 -35 -22 -10 -24 -13
-7 -9 14 4 37 9 53 12 15 3 27 9 27 14 0 18 16 8 17 -11 2 -24 -9 -31 -67 -47
l-45 -12 48 4 c52 5 54 4 31 -19 -19 -20 -90 -20 -124 -1 -50 28 -50 27 -49
-157 1 -95 4 -198 7 -228 l7 -55 51 2 c80 3 263 80 249 104 -4 5 0 6 7 4 8 -3
38 17 67 44 46 43 52 52 41 65 -7 9 -16 14 -19 11 -4 -2 -8 2 -8 10 0 10 4 12
12 5 7 -5 15 -7 19 -3 3 4 14 8 22 9 9 1 13 -1 9 -4 -4 -4 -11 -7 -16 -7 -11
0 -12 -14 -1 -17 12 -3 62 76 57 90 -3 7 -1 11 4 8 12 -8 35 50 25 65 -4 7 -3
10 4 5 16 -10 37 97 35 190 0 44 -8 105 -17 135 -21 72 -81 185 -96 181 -6 -1
-9 2 -6 7 8 13 -34 62 -46 55 -6 -4 -8 -3 -5 3 9 14 -38 52 -60 48 -10 -1 -17
-8 -15 -15 1 -6 -2 -9 -8 -5 -8 5 -8 11 1 21 6 7 16 11 23 7 6 -4 5 0 -2 9
-14 18 -146 85 -177 91 -11 2 -33 10 -50 17 -30 12 -229 23 -275 14z m31 -32
c-7 -2 -18 1 -23 6 -8 8 -4 9 13 5 13 -4 18 -8 10 -11z m-131 -32 c8 -5 11
-10 5 -10 -5 0 -17 5 -25 10 -8 5 -10 10 -5 10 6 0 17 -5 25 -10z m70 0 c-8
-5 -19 -10 -25 -10 -5 0 -3 5 5 10 8 5 20 10 25 10 6 0 3 -5 -5 -10z m-165
-70 c-3 -5 -10 -10 -16 -10 -5 0 -9 5 -9 10 0 6 7 10 16 10 8 0 12 -4 9 -10z
m777 -95 c3 0 9 -3 13 -7 4 -3 0 -5 -9 -4 -9 1 -22 8 -29 16 -10 10 -9 11 3 4
8 -5 18 -9 22 -9z m-905 -11 c-8 -8 -48 -13 -43 -6 2 4 14 8 26 9 12 1 20 0
17 -3z m-70 -156 c-3 -8 -6 -5 -6 6 -1 11 2 17 5 13 3 -3 4 -12 1 -19z m683
-78 c0 -5 -2 -10 -4 -10 -3 0 -8 5 -11 10 -3 6 -1 10 4 10 6 0 11 -4 11 -10z
m383 -53 c3 -8 -3 -13 -14 -13 -19 0 -24 8 -12 19 10 11 20 8 26 -6z m-786
-73 c-3 -3 -12 -4 -19 -1 -8 3 -5 6 6 6 11 1 17 -2 13 -5z m468 -124 c-3 -5
-12 -10 -18 -10 -7 0 -6 4 3 10 19 12 23 12 15 0z m182 -265 c0 -8 -4 -12 -9
-9 -5 3 -6 10 -3 15 9 13 12 11 12 -6z m-33 -3 c2 -4 -4 -8 -14 -8 -10 0 -16
4 -14 8 3 4 9 8 14 8 5 0 11 -4 14 -8z m-109 -72 c-3 -5 -12 -10 -18 -10 -7 0
-6 4 3 10 19 12 23 12 15 0z"/>
<path d="M812 1066 c-12 -13 -39 -28 -60 -33 -28 -7 -38 -14 -40 -32 -6 -42
14 -45 37 -6 24 41 46 42 46 2 -1 -15 2 -27 5 -27 9 0 38 63 43 93 5 33 -1 34
-31 3z"/>
<path d="M635 995 c0 -14 3 -25 8 -25 4 0 7 11 7 25 0 14 -3 25 -7 25 -5 0 -8
-11 -8 -25z"/>
<path d="M721 736 l0 -41 17 35 c9 19 21 38 26 41 4 4 -4 7 -18 7 -24 0 -26
-4 -25 -42z"/>
<path d="M175 760 c-6 -10 28 -34 65 -45 30 -9 26 -4 -22 29 -21 14 -40 21
-43 16z"/>
<path d="M628 756 c-20 -15 -14 -56 8 -56 9 0 14 12 14 35 0 40 1 39 -22 21z"/>
<path d="M350 655 c-11 -13 -10 -14 4 -9 9 3 16 10 16 15 0 13 -6 11 -20 -6z"/>
</g>
</svg>
